<svg width="164" height="40" viewBox="0 0 164 40" fill="none" xmlns="http://www.w3.org/2000/svg">
<g clip-path="url(#clip0)">
<path d="M58.6801 0H40.6205L27.1302 23.286H45.081L58.6801 0Z" fill="#B69859"/>
<path d="M31.5499 0H13.4903L0 23.286H17.9508L31.5499 0Z" fill="#B69859"/>
<path d="M13.4903 0H31.5499L45.0402 23.286H27.0894L13.4903 0Z" fill="#B69859"/>
<path d="M40.6613 0H58.7209L72.2112 23.286H54.2604L40.6613 0Z" fill="#B69859"/>
<path d="M85.8104 -0.00547418L67.7508 -0.00817871L54.2604 23.2805L63.1733 38.5827L85.8104 -0.00547418Z" fill="#B69859"/>
<path d="M81.9645 10.783L77.9256 17.8661H95.754L99.7113 10.783H81.9645Z" fill="#B69859"/>
<path d="M86.134 33.1846C86.1149 33.1035 86.0823 32.8736 86.0388 32.5031C86.0007 32.1921 85.9654 31.9379 85.9354 31.7323C85.8919 31.9757 85.8294 32.2164 85.7505 32.4598C85.6689 32.7032 85.5683 32.9493 85.4486 33.2009L82.6499 38.8642L79.8512 33.0819C79.7342 32.8439 79.6336 32.614 79.5493 32.3922C79.465 32.1704 79.3888 31.9487 79.3263 31.7323C79.3208 31.9541 79.3018 32.1894 79.2719 32.4328C79.2392 32.6762 79.193 32.9331 79.1304 33.1982L77.9827 38.4341H76.3834L78.9101 27.351L82.0651 34.0609C82.1141 34.1664 82.1875 34.3449 82.2882 34.591C82.3888 34.8371 82.5085 35.1427 82.6499 35.5051C82.7532 35.1995 82.9137 34.8128 83.1313 34.3422C83.1884 34.2151 83.2347 34.1204 83.2619 34.0528L86.3434 27.3483L88.93 38.4314H87.3144L86.134 33.1846Z" fill="#B69859"/>
<path d="M95.4603 38.4368V33.5714L91.8592 27.8026H93.6842L95.9254 31.4132C95.9798 31.5051 96.0451 31.6268 96.1267 31.7756C96.2083 31.927 96.2871 32.0866 96.3715 32.2624C96.4394 32.092 96.5102 31.9324 96.5863 31.7837C96.6625 31.6349 96.7413 31.4943 96.8229 31.3699L99.1239 27.8026H100.862L97.1792 33.5687V38.4341L95.4603 38.4368Z" fill="#B69859"/>
<path d="M104.871 38.4368V27.8026H110.838V29.2685H106.609V31.9189H110.838V33.4361H106.609V38.4341L104.871 38.4368Z" fill="#B69859"/>
<path d="M115.592 38.4368V27.8026H117.33V38.4368H115.592Z" fill="#B69859"/>
<path d="M122.672 38.4369V27.3834L129.466 33.8851C129.651 34.069 129.839 34.2665 130.029 34.4747C130.22 34.683 130.418 34.9183 130.628 35.1779V27.8026H132.235V38.8507L125.302 32.2354C125.117 32.0569 124.938 31.8675 124.766 31.6701C124.592 31.4727 124.429 31.2644 124.274 31.0454V38.4396H122.672V38.4369Z" fill="#B69859"/>
<path d="M144.885 38.4368V27.8026H147.58C148.35 27.8026 148.918 27.8432 149.285 27.927C149.653 28.0082 149.965 28.1461 150.224 28.3327C150.556 28.5761 150.811 28.8925 150.994 29.2847C151.176 29.6769 151.268 30.1096 151.268 30.5856C151.268 31.1508 151.138 31.6241 150.874 32.0055C150.61 32.3868 150.229 32.6518 149.726 32.8006C150.349 32.8979 150.841 33.1792 151.198 33.6471C151.557 34.115 151.733 34.7046 151.733 35.4159C151.733 35.8459 151.657 36.257 151.508 36.6437C151.355 37.0305 151.143 37.3604 150.866 37.6309C150.575 37.9257 150.21 38.1339 149.778 38.2556C149.345 38.3773 148.616 38.4368 147.594 38.4368H144.885ZM146.587 32.2921H147.251C148.078 32.2921 148.665 32.1785 149.008 31.9541C149.351 31.7296 149.522 31.351 149.522 30.8182C149.522 30.2367 149.364 29.8283 149.046 29.593C148.731 29.3577 148.13 29.2414 147.248 29.2414H146.585V32.2921H146.587ZM146.587 36.9926H147.186C147.795 36.9926 148.249 36.9683 148.551 36.9196C148.853 36.8709 149.092 36.7871 149.266 36.6654C149.481 36.5247 149.647 36.3354 149.764 36.1001C149.881 35.8621 149.938 35.6025 149.938 35.3158C149.938 34.9777 149.868 34.6802 149.726 34.4287C149.585 34.1772 149.383 33.9798 149.12 33.8391C148.954 33.758 148.766 33.6958 148.554 33.6579C148.342 33.6201 148.062 33.6011 147.711 33.6011H147.186H146.587V36.9926Z" fill="#B69859"/>
<path d="M158.386 38.4368V33.5714L154.785 27.8026H156.61L158.851 31.4132C158.906 31.5051 158.971 31.6268 159.052 31.7756C159.134 31.927 159.213 32.0866 159.297 32.2624C159.365 32.092 159.436 31.9324 159.512 31.7837C159.588 31.6349 159.667 31.4943 159.749 31.3699L162.05 27.8026H163.788L160.105 33.5687V38.4341L158.386 38.4368Z" fill="#B69859"/>
<path d="M139.083 40C140.425 40 141.512 38.9187 141.512 37.5848C141.512 36.251 140.425 35.1697 139.083 35.1697C137.742 35.1697 136.655 36.251 136.655 37.5848C136.655 38.9187 137.742 40 139.083 40Z" fill="#B69859"/>
<path d="M88.1112 0L84.0723 7.08316H101.901L105.858 0H88.1112Z" fill="#B69859"/>
</g>
<defs>
<clipPath id="clip0">
<path d="M0 0H163.934V40H0V0Z" fill="white"/>
</clipPath>
</defs>
</svg>
