<svg width="194" height="40" viewBox="0 0 194 40" fill="none" xmlns="http://www.w3.org/2000/svg">
<path d="M11.834 12.0976C11.834 13.6585 11.252 14.9268 10.185 16C9.118 17.0732 7.76 17.6585 6.305 17.6585H2.425C1.94 17.6585 1.552 17.4634 1.261 17.1707C0.970001 16.878 0.776001 16.4878 0.776001 16V1.95122C0.776001 1.46341 0.970001 1.07317 1.261 0.780488C1.552 0.487805 1.94 0.292683 2.425 0.292683H10.185C10.67 0.292683 11.058 0.487805 11.349 0.780488C11.64 1.07317 11.834 1.46341 11.834 1.95122C11.834 2.43902 11.64 2.82927 11.349 3.12195C11.058 3.41463 10.67 3.60976 10.185 3.60976H4.074V6.53658H6.305C7.857 6.53658 9.118 7.12195 10.185 8.19512C11.252 9.26829 11.834 10.5366 11.834 12.0976ZM8.536 12.0976C8.536 11.5122 8.342 10.9268 7.857 10.5366C7.469 10.1463 6.887 9.85366 6.305 9.85366H4.074V14.3415H6.305C6.887 14.3415 7.469 14.1463 7.857 13.6585C8.245 13.1707 8.536 12.6829 8.536 12.0976Z" fill="#221F18"/>
<path d="M30.167 16C30.167 16.4878 29.973 16.878 29.682 17.1707C29.294 17.4634 28.906 17.6585 28.518 17.6585C27.839 17.6585 27.451 17.3659 27.063 16.6829L25.22 12.878H17.945L16.102 16.6829C15.811 17.2683 15.326 17.6585 14.647 17.6585C14.162 17.6585 13.774 17.4634 13.483 17.1707C13.192 16.878 12.998 16.4878 12.998 16C12.998 15.7073 13.095 15.5122 13.192 15.2195L19.982 1.46341C20.37 0.682927 20.952 0.195122 21.631 0.195122C22.31 0.195122 22.892 0.585366 23.28 1.46341L30.07 15.2195C30.07 15.5122 30.167 15.8049 30.167 16ZM23.474 9.65854L21.534 5.65854L19.594 9.65854H23.474Z" fill="#221F18"/>
<path d="M44.814 16C44.814 16.4878 44.62 16.878 44.329 17.1707C44.038 17.4634 43.65 17.6585 43.165 17.6585C42.68 17.6585 42.292 17.4634 42.001 17.1707C41.71 16.878 41.516 16.4878 41.516 16V10.6341H35.502V16C35.502 16.4878 35.308 16.878 35.017 17.1707C34.726 17.4634 34.338 17.6585 33.853 17.6585C33.368 17.6585 32.98 17.4634 32.689 17.1707C32.398 16.878 32.204 16.4878 32.204 16V1.95122C32.204 1.46341 32.398 1.07317 32.689 0.780488C32.98 0.487805 33.368 0.292683 33.853 0.292683C34.338 0.292683 34.726 0.487805 35.017 0.780488C35.308 1.07317 35.502 1.46341 35.502 1.95122V7.31707H41.516V1.95122C41.516 1.46341 41.71 1.07317 42.001 0.780488C42.292 0.487805 42.68 0.292683 43.165 0.292683C43.65 0.292683 44.038 0.487805 44.329 0.780488C44.62 1.07317 44.814 1.46341 44.814 1.95122V16Z" fill="#221F18"/>
<path d="M51.216 16C51.216 16.4878 51.022 16.878 50.731 17.1707C50.44 17.4634 50.052 17.6585 49.567 17.6585C49.082 17.6585 48.694 17.4634 48.403 17.1707C48.112 16.878 47.918 16.4878 47.918 16V1.95122C47.918 1.46341 48.112 1.07317 48.403 0.780488C48.694 0.487805 49.082 0.292683 49.567 0.292683C50.052 0.292683 50.44 0.487805 50.731 0.780488C51.022 1.07317 51.216 1.46341 51.216 1.95122V16ZM61.498 16C61.498 16.4878 61.304 16.878 61.013 17.1707C60.722 17.4634 60.237 17.6585 59.849 17.6585C59.461 17.6585 59.073 17.4634 58.685 17.1707L51.701 10.1463C51.41 9.7561 51.216 9.36585 51.216 8.97561C51.216 8.4878 51.41 8.09756 51.701 7.80488L58.685 0.780488C59.073 0.487805 59.461 0.292683 59.849 0.292683C60.334 0.292683 60.722 0.487805 61.013 0.780488C61.304 1.07317 61.498 1.56098 61.498 1.95122C61.498 2.34146 61.304 2.73171 61.013 3.12195L55.193 8.97561L61.013 14.8293C61.401 15.122 61.498 15.5122 61.498 16Z" fill="#221F18"/>
<path d="M11.834 24.0976C11.834 24.5854 11.64 24.9756 11.349 25.2683C11.058 25.561 10.67 25.7561 10.185 25.7561H4.074V38.1463C4.074 38.6341 3.88 39.0244 3.589 39.3171C3.298 39.6098 2.91 39.8049 2.425 39.8049C1.94 39.8049 1.552 39.6098 1.261 39.3171C0.970001 39.0244 0.776001 38.6341 0.776001 38.1463V24.0976C0.776001 23.6098 0.970001 23.2195 1.261 22.9268C1.552 22.6341 1.94 22.439 2.425 22.439H10.185C10.67 22.439 11.058 22.6341 11.349 22.9268C11.64 23.2195 11.834 23.6098 11.834 24.0976Z" fill="#221F18"/>
<path d="M29.585 31.1219C29.585 33.561 28.712 35.6098 27.063 37.2683C25.414 38.9268 23.377 39.8049 20.952 39.8049C18.527 39.8049 16.49 38.9268 14.841 37.2683C13.192 35.6098 12.319 33.561 12.319 31.1219C12.319 28.6829 13.192 26.6341 14.841 24.9756C16.49 23.3171 18.527 22.439 20.952 22.439C23.377 22.439 25.414 23.3171 27.063 24.9756C28.712 26.6341 29.585 28.6829 29.585 31.1219ZM26.287 31.1219C26.287 29.6585 25.802 28.3902 24.735 27.3171C23.668 26.2439 22.407 25.7561 20.952 25.7561C19.497 25.7561 18.236 26.2439 17.169 27.3171C16.102 28.3902 15.617 29.6585 15.617 31.1219C15.617 32.5854 16.102 33.8537 17.169 34.9268C18.236 36 19.497 36.4878 20.952 36.4878C22.407 36.4878 23.668 36 24.735 34.9268C25.802 33.8537 26.287 32.5854 26.287 31.1219Z" fill="#221F18"/>
<path d="M47.821 38.1463C47.821 38.6341 47.627 39.0244 47.336 39.3171C46.948 39.6098 46.56 39.8049 46.075 39.8049H32.301C31.816 39.8049 31.428 39.6098 31.04 39.3171C30.652 39.0244 30.555 38.6341 30.555 38.1463C30.555 37.8537 30.652 37.561 30.846 37.0732L37.539 23.6098C37.927 22.8293 38.509 22.3415 39.188 22.3415C39.867 22.3415 40.449 22.7317 40.837 23.6098L47.53 37.0732C47.724 37.561 47.821 37.8537 47.821 38.1463ZM43.553 36.4878L39.285 27.8049L34.92 36.4878H43.553Z" fill="#221F18"/>
<path d="M66.154 38.1463C66.154 38.6341 65.96 39.0244 65.669 39.3171C65.281 39.6098 64.893 39.8049 64.505 39.8049C63.826 39.8049 63.438 39.5122 63.05 38.8293L61.11 35.122H53.835L51.992 38.8293C51.701 39.4146 51.216 39.8049 50.537 39.8049C50.052 39.8049 49.664 39.6098 49.373 39.3171C48.985 39.0244 48.888 38.6341 48.888 38.1463C48.888 37.8537 48.985 37.6585 49.082 37.3659L55.872 23.6098C56.26 22.8293 56.842 22.3415 57.521 22.3415C58.2 22.3415 58.782 22.7317 59.17 23.6098L65.96 37.3659C66.154 37.6585 66.154 37.8537 66.154 38.1463ZM59.461 31.8049L57.521 27.8049L55.581 31.8049H59.461Z" fill="#221F18"/>
<path d="M88.852 8C88.852 8.09756 88.755 8.19512 88.658 8.19512H84.39C84.293 8.19512 84.196 8.09756 84.196 8V0.390244C84.196 0.292683 84.293 0.195122 84.39 0.195122H88.561C88.658 0.195122 88.755 0.292683 88.755 0.390244C88.755 0.487805 88.658 0.585366 88.561 0.585366H84.584V4H87.785C87.882 4 87.979 4.09756 87.979 4.19512C87.979 4.29268 87.882 4.39024 87.785 4.39024H84.584V7.80488H88.561C88.755 7.80488 88.852 7.90244 88.852 8Z" fill="#221F18"/>
<path d="M88.852 16.1951C88.852 16.2927 88.755 16.3902 88.658 16.3902H84.681V19.4146H86.621C87.3 19.4146 87.785 19.6098 88.27 20.0976C88.755 20.5854 88.949 21.0732 88.949 21.7561C88.949 22.439 88.755 22.9268 88.27 23.4146C87.785 23.9024 87.3 24.0976 86.621 24.0976H84.39C84.293 24.0976 84.196 24 84.196 23.9024V16.2927C84.196 16.1951 84.293 16.0976 84.39 16.0976H88.561C88.755 16 88.852 16 88.852 16.1951ZM88.464 21.6585C88.464 21.1707 88.27 20.6829 87.882 20.2927C87.494 19.9024 87.106 19.7073 86.524 19.7073H84.584V23.5122H86.524C87.009 23.5122 87.494 23.3171 87.882 22.9268C88.27 22.6341 88.464 22.1463 88.464 21.6585Z" fill="#221F18"/>
<path d="M88.561 39.5122C88.561 39.6098 88.464 39.7073 88.367 39.7073C88.27 39.7073 88.173 39.6098 88.173 39.5122V32.0976H84.39V39.5122C84.39 39.6098 84.293 39.7073 84.196 39.7073C84.099 39.7073 84.002 39.6098 84.002 39.5122V31.9024C84.002 31.8049 84.099 31.7073 84.196 31.7073H88.367C88.464 31.7073 88.561 31.8049 88.561 31.9024V39.5122Z" fill="#221F18"/>
<path d="M102.335 0.390244C102.335 0.487805 102.335 0.487805 102.238 0.487805L98.552 4.19512L102.238 7.90244L102.335 8C102.335 8.09756 102.238 8.19512 102.141 8.19512C102.044 8.19512 102.044 8.19512 102.044 8.09756L98.261 4.29268L98.164 4.19512V8C98.164 8.09756 98.067 8.19512 97.97 8.19512C97.873 8.19512 97.776 8.09756 97.776 8V4.19512C97.776 4.29268 97.776 4.29268 97.679 4.29268L93.896 8.09756L93.799 8.19512C93.702 8.19512 93.605 8.09756 93.605 8C93.605 7.90244 93.605 7.90244 93.702 7.90244L97.388 4.19512L93.702 0.487805L93.605 0.390244C93.605 0.292683 93.702 0.195122 93.799 0.195122C93.799 0.195122 93.896 0.195122 93.896 0.292683L97.679 4.09756L97.776 4.19512V0.390244C97.776 0.292683 97.873 0.195122 97.97 0.195122C98.067 0.195122 98.164 0.292683 98.164 0.390244V4.19512C98.164 4.09756 98.164 4.09756 98.261 4.09756L102.044 0.292683L102.141 0.195122C102.238 0.195122 102.335 0.292683 102.335 0.390244Z" fill="#221F18"/>
<path d="M101.85 23.8049C101.85 23.9024 101.753 24 101.656 24C101.559 24 101.559 24 101.462 23.9024L100.104 21.2683C100.104 21.3659 100.007 21.4634 99.91 21.4634H95.739C95.642 21.4634 95.545 21.3659 95.545 21.2683L94.187 23.9024C94.187 24 94.09 24 93.993 24C93.896 24 93.799 23.9024 93.799 23.8049C93.799 23.8049 94.381 22.5366 95.545 20.1951C96.709 17.8537 97.388 16.4878 97.582 16.0976C97.679 16 97.679 16 97.776 16C97.873 16 97.873 16 97.97 16.0976C98.164 16.4878 98.843 17.8537 100.007 20.1951C101.268 22.5366 101.85 23.7073 101.85 23.8049ZM100.104 21.0732L97.873 16.5854L95.642 21.0732H95.739H100.007C100.104 21.0732 100.104 21.0732 100.104 21.0732Z" fill="#221F18"/>
<path d="M100.492 34.0488C100.492 34.7317 100.298 35.2195 99.813 35.7073C99.328 36.1951 98.843 36.3902 98.164 36.3902H96.418C96.321 36.3902 96.224 36.2927 96.224 36.1951C96.224 36.0976 96.321 36 96.418 36H98.164C98.649 36 99.134 35.8049 99.522 35.4146C99.91 35.0244 100.104 34.6341 100.104 34.0488C100.104 33.561 99.91 33.0732 99.522 32.6829C99.134 32.2927 98.746 32.0976 98.164 32.0976H96.224V39.5122C96.224 39.6098 96.127 39.7073 96.03 39.7073C95.933 39.7073 95.836 39.6098 95.836 39.5122V31.9024C95.836 31.8049 95.933 31.7073 96.03 31.7073H98.164C98.843 31.7073 99.328 31.9024 99.813 32.3902C100.298 32.7805 100.492 33.3659 100.492 34.0488Z" fill="#221F18"/>
<path d="M112.132 8C112.132 8.09756 112.035 8.19512 111.938 8.19512H107.767C107.67 8.19512 107.573 8.09756 107.573 8V0.390244C107.573 0.292683 107.67 0.195122 107.767 0.195122H111.938C112.035 0.195122 112.132 0.292683 112.132 0.390244C112.132 0.487805 112.035 0.585366 111.938 0.585366H107.961V4H111.162C111.259 4 111.356 4.09756 111.356 4.19512C111.356 4.29268 111.259 4.39024 111.162 4.39024H107.961V7.80488H111.938C112.035 7.80488 112.132 7.90244 112.132 8Z" fill="#221F18"/>
<path d="M112.326 23.8049C112.326 23.9024 112.229 24 112.132 24C112.035 24 111.938 23.9024 111.938 23.8049V20.1951H107.282V23.8049C107.282 23.9024 107.185 24 107.088 24C106.991 24 106.894 23.9024 106.894 23.8049V16.1951C106.894 16.0976 106.991 16 107.088 16C107.185 16 107.282 16.0976 107.282 16.1951V19.8049H111.938V16.1951C111.938 16.0976 112.035 16 112.132 16C112.229 16 112.326 16.0976 112.326 16.1951V23.8049Z" fill="#221F18"/>
<path d="M112.132 39.5122C112.132 39.6098 112.035 39.7073 111.938 39.7073H107.767C107.67 39.7073 107.573 39.6098 107.573 39.5122V31.9024C107.573 31.8049 107.67 31.7073 107.767 31.7073H111.938C112.035 31.7073 112.132 31.8049 112.132 31.9024C112.132 32 112.035 32.0976 111.938 32.0976H107.961V35.5122H111.162C111.259 35.5122 111.356 35.6098 111.356 35.7073C111.356 35.8049 111.259 35.9024 111.162 35.9024H107.961V39.3171H111.938C112.035 39.3171 112.132 39.4146 112.132 39.5122Z" fill="#221F18"/>
<path d="M123.966 0.390244C123.966 0.487805 123.869 0.585366 123.772 0.585366H119.795V8C119.795 8.09756 119.698 8.19512 119.601 8.19512C119.504 8.19512 119.407 8.09756 119.407 8V0.390244C119.407 0.292683 119.504 0.195122 119.601 0.195122H123.772C123.869 0.195122 123.966 0.292683 123.966 0.390244Z" fill="#221F18"/>
<path d="M123.772 16.1951C123.772 16.2927 123.772 16.2927 123.675 16.2927L119.989 20L123.675 23.7073L123.772 23.8049C123.772 23.9024 123.675 24 123.578 24C123.578 24 123.481 24 123.481 23.9024L119.698 20.0976L119.601 20V23.8049C119.601 23.9024 119.504 24 119.407 24C119.31 24 119.213 23.9024 119.213 23.8049V16.1951C119.213 16.0976 119.31 16 119.407 16C119.504 16 119.601 16.0976 119.601 16.1951V20C119.601 19.9024 119.601 19.9024 119.698 19.9024L123.481 16.0976L123.578 16C123.772 16 123.772 16 123.772 16.1951Z" fill="#221F18"/>
<path d="M125.615 39.5122C125.615 39.6098 125.518 39.7073 125.421 39.7073C125.324 39.7073 125.227 39.6098 125.227 39.5122L123.675 32.4878L121.444 37.8537C121.444 37.9512 121.347 38.0488 121.25 38.0488C121.153 38.0488 121.056 37.9512 121.056 37.8537L118.825 32.4878L117.273 39.5122C117.273 39.6098 117.176 39.7073 117.079 39.7073C116.982 39.7073 116.885 39.6098 116.885 39.5122C116.885 39.5122 116.885 39.5122 116.885 39.4146L118.534 31.8049C118.534 31.7073 118.631 31.6098 118.728 31.6098C118.825 31.6098 118.825 31.7073 118.922 31.8049L121.25 37.2683L123.578 31.8049C123.578 31.7073 123.675 31.6098 123.772 31.6098C123.869 31.6098 123.966 31.7073 123.966 31.8049L125.615 39.5122Z" fill="#221F18"/>
<path d="M136.867 4.19512C136.867 5.26829 136.479 6.2439 135.703 7.02439C134.927 7.80488 133.957 8.19512 132.89 8.19512C131.823 8.19512 130.853 7.80488 130.077 7.02439C129.301 6.2439 128.913 5.26829 128.913 4.19512C128.913 3.12195 129.301 2.14634 130.077 1.36585C130.853 0.585366 131.823 0.195122 132.89 0.195122C133.957 0.195122 134.927 0.585366 135.703 1.36585C136.479 2.14634 136.867 3.12195 136.867 4.19512ZM136.479 4.19512C136.479 3.21951 136.091 2.34146 135.412 1.65854C134.733 0.97561 133.86 0.585366 132.89 0.585366C131.92 0.585366 131.047 0.97561 130.368 1.65854C129.689 2.34146 129.301 3.21951 129.301 4.19512C129.301 5.17073 129.689 6.04878 130.368 6.73171C131.047 7.5122 131.92 7.80488 132.89 7.80488C133.86 7.80488 134.733 7.41463 135.412 6.73171C136.091 6.04878 136.479 5.26829 136.479 4.19512Z" fill="#221F18"/>
<path d="M136.867 20C136.867 21.0732 136.479 22.0488 135.703 22.8293C134.927 23.6098 133.957 24 132.89 24C131.823 24 130.853 23.6098 130.077 22.8293C129.301 22.0488 128.913 21.0732 128.913 20C128.913 18.9268 129.301 17.9512 130.077 17.1707C130.853 16.3902 131.823 16 132.89 16C133.957 16 134.927 16.3902 135.703 17.1707C136.479 17.9512 136.867 18.8293 136.867 20ZM136.479 20C136.479 19.0244 136.091 18.1463 135.412 17.4634C134.733 16.7805 133.86 16.3902 132.89 16.3902C131.92 16.3902 131.047 16.7805 130.368 17.4634C129.689 18.1463 129.301 19.0244 129.301 20C129.301 20.9756 129.689 21.8537 130.368 22.5366C131.047 23.2195 131.92 23.6098 132.89 23.6098C133.86 23.6098 134.733 23.2195 135.412 22.5366C136.091 21.8537 136.479 20.9756 136.479 20Z" fill="#221F18"/>
<path d="M135.994 31.9024V39.5122C135.994 39.6098 135.897 39.7073 135.8 39.7073C135.703 39.7073 135.606 39.6098 135.606 39.5122V32.4878L130.077 39.6098C129.98 39.7073 129.98 39.7073 129.883 39.7073C129.786 39.7073 129.689 39.6098 129.689 39.5122V31.9024C129.689 31.8049 129.786 31.7073 129.883 31.7073C129.98 31.7073 130.077 31.8049 130.077 31.9024V38.9268L135.606 31.8049C135.703 31.7073 135.703 31.7073 135.8 31.7073C135.994 31.7073 135.994 31.8049 135.994 31.9024Z" fill="#221F18"/>
<path d="M148.507 8C148.507 8.09756 148.41 8.19512 148.313 8.19512H140.747C140.65 8.19512 140.553 8.09756 140.553 8V7.90244L144.336 0.390244C144.336 0.292683 144.433 0.292683 144.53 0.292683C144.627 0.292683 144.724 0.292683 144.724 0.390244L148.507 7.90244C148.507 8 148.507 8 148.507 8ZM148.022 7.80488L144.53 0.878049L141.038 7.80488H148.022Z" fill="#221F18"/>
<path d="M147.149 21.6585C147.149 22.3415 146.955 22.8293 146.47 23.3171C145.985 23.8049 145.5 24 144.821 24H142.687C142.59 24 142.493 23.9024 142.493 23.8049V16.1951C142.493 16.0976 142.59 16 142.687 16H144.821C145.306 16 145.791 16.1951 146.179 16.5854C146.567 16.9756 146.761 17.3659 146.761 17.9512C146.761 18.7317 146.47 19.2195 145.791 19.6098C146.179 19.8049 146.567 20.0976 146.858 20.4878C146.955 20.7805 147.149 21.1707 147.149 21.6585ZM146.276 17.8537C146.276 17.4634 146.179 17.0732 145.791 16.7805C145.5 16.4878 145.112 16.3902 144.724 16.3902H142.784V19.4146H144.724C145.112 19.4146 145.5 19.2195 145.791 18.9268C146.179 18.6341 146.276 18.2439 146.276 17.8537ZM146.761 21.6585C146.761 21.1707 146.567 20.6829 146.179 20.2927C145.791 19.9024 145.403 19.7073 144.821 19.7073H142.881V23.5122H144.821C145.306 23.5122 145.791 23.3171 146.179 22.9268C146.567 22.6341 146.761 22.1463 146.761 21.6585Z" fill="#221F18"/>
<path d="M146.567 39.5122C146.567 39.6098 146.47 39.7073 146.373 39.7073C146.276 39.7073 146.179 39.6098 146.179 39.5122V32.0976H144.239C143.754 32.0976 143.269 32.2927 142.881 32.6829C142.493 33.0732 142.299 33.4634 142.299 34.0488C142.299 34.5366 142.493 35.0244 142.881 35.4146C143.269 35.8049 143.657 36 144.239 36H145.5C145.597 36 145.694 36.0976 145.694 36.1951C145.694 36.2927 145.694 36.2927 145.597 36.3902L142.299 39.7073L142.202 39.8049C142.105 39.8049 142.008 39.7073 142.008 39.6098C142.008 39.5122 142.008 39.5122 142.105 39.5122L145.112 36.4878H144.336C143.657 36.4878 143.172 36.2927 142.687 35.8049C142.202 35.3171 142.008 34.8293 142.008 34.1463C142.008 33.4634 142.202 32.9756 142.687 32.4878C143.172 32 143.657 31.8049 144.336 31.8049H146.47C146.567 31.8049 146.664 31.9024 146.664 32V39.5122H146.567Z" fill="#221F18"/>
<path d="M158.886 8C158.886 8.09756 158.789 8.19512 158.692 8.19512C158.595 8.19512 158.498 8.09756 158.498 8V4.39024H153.842V8C153.842 8.09756 153.745 8.19512 153.648 8.19512C153.551 8.19512 153.454 8.09756 153.454 8V0.390244C153.454 0.292683 153.551 0.195122 153.648 0.195122C153.745 0.195122 153.842 0.292683 153.842 0.390244V4H158.498V0.390244C158.498 0.292683 158.595 0.195122 158.692 0.195122C158.789 0.195122 158.886 0.292683 158.886 0.390244V8Z" fill="#221F18"/>
<path d="M159.662 22.6341C159.662 22.6341 159.662 22.7317 159.565 22.7317C158.789 23.5122 157.916 23.9024 156.752 23.9024C155.685 23.9024 154.715 23.5122 153.939 22.7317C153.163 21.9512 152.775 20.9756 152.775 19.9024C152.775 18.8293 153.163 17.8537 153.939 17.0732C154.715 16.2927 155.685 15.9024 156.752 15.9024C157.916 15.9024 158.789 16.2927 159.565 17.0732L159.662 17.1707C159.662 17.2683 159.565 17.3659 159.468 17.3659C159.468 17.3659 159.371 17.3659 159.371 17.2683C158.595 16.5854 157.722 16.1951 156.849 16.1951C155.879 16.1951 155.006 16.5854 154.327 17.2683C153.648 17.9512 153.26 18.8293 153.26 19.8049C153.26 20.7805 153.648 21.6585 154.327 22.3415C155.006 23.0244 155.879 23.4146 156.849 23.4146C157.722 23.4146 158.595 23.0244 159.371 22.3415L159.468 22.2439C159.565 22.439 159.662 22.5366 159.662 22.6341Z" fill="#221F18"/>
<path d="M171.884 8C171.884 8.09756 171.787 8.19512 171.69 8.19512C171.593 8.19512 171.593 8.19512 171.496 8.09756L170.138 5.46341C170.138 5.56098 170.041 5.65854 169.944 5.65854H165.773C165.676 5.65854 165.579 5.56098 165.579 5.46341L164.221 8.09756C164.221 8.19512 164.124 8.19512 164.027 8.19512C163.93 8.19512 163.833 8.09756 163.833 8C163.833 8 164.415 6.73171 165.579 4.39024C166.743 2.04878 167.422 0.682927 167.616 0.292683C167.713 0.195122 167.713 0.195122 167.81 0.195122C167.907 0.195122 167.907 0.195122 168.004 0.292683C168.198 0.682927 168.877 2.04878 170.041 4.39024C171.302 6.82927 171.884 8 171.884 8ZM170.138 5.36585L167.907 0.878049L165.676 5.36585H165.773H170.041C170.041 5.26829 170.041 5.26829 170.138 5.36585Z" fill="#221F18"/>
<path d="M170.429 16.1951C170.429 16.2927 170.429 16.2927 170.332 16.2927L166.646 20L170.332 23.7073L170.429 23.8049C170.429 23.9024 170.332 24 170.235 24C170.235 24 170.138 24 170.138 23.9024L166.355 20.0976L166.258 20V23.8049C166.258 23.9024 166.161 24 166.064 24C165.967 24 165.87 23.9024 165.87 23.8049V16.1951C165.87 16.0976 165.967 16 166.064 16C166.161 16 166.258 16.0976 166.258 16.1951V20C166.258 19.9024 166.258 19.9024 166.355 19.9024L170.138 16.0976L170.235 16C170.332 16 170.429 16 170.429 16.1951Z" fill="#221F18"/>
<path d="M181.584 8C181.584 8.09756 181.487 8.19512 181.39 8.19512C181.293 8.19512 181.196 8.09756 181.196 8V0.585366H179.256C178.771 0.585366 178.286 0.780488 177.898 1.17073C177.51 1.56098 177.316 1.95122 177.316 2.53659C177.316 3.02439 177.51 3.51219 177.898 3.90244C178.286 4.29268 178.674 4.4878 179.256 4.4878H180.517C180.614 4.4878 180.711 4.58537 180.711 4.68293C180.711 4.78049 180.711 4.78049 180.614 4.87805L177.316 8.19512L177.219 8.29268C177.122 8.29268 177.025 8.19512 177.025 8.09756C177.025 8 177.025 8 177.122 8L180.129 4.97561H179.353C178.674 4.97561 178.189 4.78049 177.704 4.29268C177.219 3.80488 177.025 3.31707 177.025 2.63415C177.025 1.95122 177.219 1.46341 177.704 0.975609C178.189 0.487805 178.674 0.292683 179.353 0.292683H181.487C181.584 0.292683 181.681 0.390244 181.681 0.487805V8H181.584Z" fill="#221F18"/>
<path d="M183.524 23.8049C183.524 23.9024 183.427 24 183.33 24C183.233 24 183.233 24 183.136 23.9024L181.778 21.2683C181.778 21.3659 181.681 21.4634 181.584 21.4634H177.413C177.316 21.4634 177.219 21.3659 177.219 21.2683L175.861 23.9024C175.861 24 175.764 24 175.667 24C175.57 24 175.473 23.9024 175.473 23.8049C175.473 23.8049 176.055 22.5366 177.219 20.1951C178.383 17.8537 179.062 16.4878 179.256 16.0976C179.353 16 179.353 16 179.45 16C179.547 16 179.547 16 179.644 16.0976C179.838 16.4878 180.517 17.8537 181.681 20.1951C182.942 22.5366 183.524 23.7073 183.524 23.8049ZM181.778 21.0732L179.547 16.5854L177.316 21.0732H177.413H181.681C181.681 21.0732 181.681 21.0732 181.778 21.0732Z" fill="#221F18"/>
<path d="M193.224 23.8049C193.224 23.9024 193.127 24 193.03 24C192.933 24 192.836 23.9024 192.836 23.8049V16.3902H190.896C190.411 16.3902 189.926 16.5854 189.538 16.9756C189.15 17.3659 188.956 17.7561 188.956 18.3415C188.956 18.8293 189.15 19.3171 189.538 19.7073C189.926 20.0976 190.314 20.2927 190.896 20.2927H192.157C192.254 20.2927 192.351 20.3902 192.351 20.4878C192.351 20.5854 192.351 20.5854 192.254 20.6829L188.956 24L188.859 24.0976C188.762 24.0976 188.665 24 188.665 23.9024C188.665 23.8049 188.665 23.8049 188.762 23.8049L191.769 20.7805H190.993C190.314 20.7805 189.829 20.5854 189.344 20.0976C188.859 19.6098 188.665 19.122 188.665 18.439C188.665 17.7561 188.859 17.2683 189.344 16.7805C189.829 16.2927 190.314 16.0976 190.993 16.0976H193.127C193.224 16.0976 193.321 16.1951 193.321 16.2927V23.8049H193.224Z" fill="#221F18"/>
</svg>
